<?xml version="1.0" standalone="no"?>
<!DOCTYPE svg PUBLIC "-//W3C//DTD SVG 20010904//EN"
 "http://www.w3.org/TR/2001/REC-SVG-20010904/DTD/svg10.dtd">
<svg version="1.0" xmlns="http://www.w3.org/2000/svg"
 width="176.000000pt" height="188.000000pt" viewBox="0 0 176.000000 188.000000"
 preserveAspectRatio="xMidYMid meet">

<g transform="translate(0.000000,188.000000) scale(0.100000,-0.100000)"
fill="#000000" stroke="none">
<path d="M0 940 l0 -940 880 0 880 0 0 940 0 940 -880 0 -880 0 0 -940z m1698
868 c9 -9 12 -218 12 -880 l0 -868 -830 0 -830 0 0 873 c0 481 3 877 7 880 3
4 371 7 818 7 617 0 814 -3 823 -12z"/>
<path d="M689 1461 c-270 -135 -411 -437 -339 -724 32 -127 74 -200 170 -297
138 -139 249 -181 307 -117 67 73 45 140 -61 193 -22 10 -63 43 -93 72 -86 85
-123 174 -123 299 0 166 81 297 238 383 70 39 91 99 55 160 -30 51 -90 63
-154 31z"/>
<path d="M1121 1449 c-24 -24 -31 -39 -31 -70 0 -53 21 -82 83 -117 29 -16 72
-46 95 -66 56 -46 115 -50 155 -10 33 33 41 57 33 100 -12 63 -192 194 -268
194 -28 0 -44 -8 -67 -31z"/>
<path d="M1309 603 c-15 -10 -54 -37 -87 -60 -34 -24 -64 -43 -68 -43 -5 0
-21 -12 -36 -27 -36 -35 -40 -107 -7 -142 55 -59 116 -49 244 39 88 62 120
121 96 182 -20 54 -97 81 -142 51z"/>
</g>
</svg>
