<?xml version="1.0" standalone="no"?>
<!DOCTYPE svg PUBLIC "-//W3C//DTD SVG 20010904//EN"
 "http://www.w3.org/TR/2001/REC-SVG-20010904/DTD/svg10.dtd">
<svg version="1.0" xmlns="http://www.w3.org/2000/svg"
 width="1004.000000pt" height="1004.000000pt" viewBox="0 0 1004.000000 1004.000000"
 preserveAspectRatio="xMidYMid meet">
<metadata>
Created by potrace 1.14, written by Peter Selinger 2001-2017
</metadata>
<g transform="translate(0.000000,1004.000000) scale(0.100000,-0.100000)"
fill="#000000" stroke="none">
<path d="M320 5020 l0 -5020 4700 0 4700 0 0 5020 0 5020 -4700 0 -4700 0 0
-5020z m4718 4700 c59 0 112 1 117 1 160 2 3131 -12 3295 -16 642 -12 915 -26
937 -49 5 -4 6 -8 16 -66 15 -79 27 -375 31 -766 1 -110 6 -205 9 -211 4 -7 3
-14 -2 -18 -6 -3 -7 -15 -2 -28 5 -12 5 -34 0 -49 -4 -16 -4 -28 1 -28 4 0 4
-16 0 -34 -4 -19 -5 -38 -2 -41 9 -9 8 -55 -1 -55 -4 0 -5 -5 -1 -12 4 -6 9
-280 11 -607 5 -832 9 -7382 5 -7403 -4 -16 -278 -17 -4435 -15 l-4431 2 2
3340 c2 3632 5 4676 16 4693 3 6 3 13 -2 16 -9 5 -8 59 2 75 4 5 2 12 -3 15
-5 4 -7 19 -5 34 8 41 9 161 1 168 -3 4 -4 11 0 17 3 5 7 140 9 301 3 346 12
688 18 693 22 22 1086 35 2993 37 711 1 1293 5 1293 9 0 5 5 5 11 1 6 -3 59
-5 117 -4z"/>
<path d="M6617 7904 c-1 -1 -22 -5 -47 -9 -44 -6 -139 -47 -170 -73 -147 -125
-227 -233 -247 -332 -13 -69 -8 -277 8 -310 4 -8 16 -37 26 -65 9 -27 32 -68
50 -92 18 -24 33 -47 34 -51 1 -20 243 -202 269 -202 5 0 10 -4 10 -9 0 -5 8
-11 18 -14 20 -7 90 -48 150 -88 24 -16 47 -29 52 -29 4 0 10 -3 12 -8 2 -4
39 -32 83 -61 44 -30 82 -57 85 -60 3 -3 34 -28 70 -56 36 -27 72 -56 80 -64
48 -46 300 -185 300 -165 0 2 9 0 19 -6 23 -12 89 -22 146 -22 104 0 193 26
275 82 57 39 160 141 160 158 0 5 6 12 13 15 19 7 73 116 87 175 16 68 8 220
-15 287 -28 82 -103 183 -230 310 -66 66 -131 129 -145 140 -195 156 -300 231
-441 315 -57 33 -111 65 -119 70 -8 6 -26 15 -40 21 -14 5 -54 24 -90 41 -145
68 -253 99 -363 102 -21 1 -39 1 -40 0z"/>
<path d="M4308 7895 c-2 -1 -23 -6 -48 -9 -68 -10 -127 -24 -145 -35 -5 -3
-15 -6 -21 -7 -27 -4 -252 -123 -379 -201 -11 -7 -27 -16 -35 -20 -8 -4 -24
-15 -34 -25 -11 -10 -25 -18 -32 -18 -7 0 -14 -4 -16 -8 -1 -5 -25 -23 -53
-42 -27 -18 -52 -36 -55 -39 -3 -4 -32 -26 -65 -51 -33 -24 -65 -49 -72 -55
-6 -5 -35 -30 -64 -55 -86 -72 -294 -279 -352 -349 -28 -35 -59 -71 -68 -80
-12 -13 -54 -65 -91 -116 -4 -5 -19 -24 -33 -41 -14 -18 -25 -36 -25 -42 0 -6
-4 -12 -9 -14 -5 -1 -36 -46 -69 -98 -34 -52 -65 -99 -70 -105 -4 -5 -9 -12
-9 -15 -4 -19 -28 -60 -35 -60 -4 0 -8 -9 -8 -19 0 -11 -3 -21 -7 -23 -20 -8
-214 -429 -228 -492 -1 -6 -5 -18 -8 -26 -19 -50 -80 -258 -79 -267 1 -2 -4
-17 -9 -35 -6 -18 -13 -46 -15 -63 -2 -16 -8 -43 -13 -60 -5 -16 -12 -48 -15
-70 -2 -22 -7 -47 -10 -55 -2 -8 -7 -37 -11 -65 -3 -27 -8 -61 -10 -75 -15
-112 -20 -219 -19 -430 1 -222 5 -306 18 -395 3 -16 8 -52 12 -80 3 -27 8 -59
11 -70 2 -11 6 -33 8 -49 2 -15 7 -37 10 -47 4 -11 8 -32 10 -47 3 -15 7 -38
10 -52 3 -14 8 -36 11 -49 3 -14 7 -28 10 -33 3 -4 7 -16 9 -26 20 -106 113
-385 181 -542 62 -146 227 -431 284 -492 11 -12 20 -25 20 -29 0 -10 135 -175
223 -274 160 -179 416 -423 580 -555 11 -8 24 -20 31 -25 23 -21 193 -142 256
-182 52 -34 247 -138 265 -142 10 -3 32 -10 75 -25 235 -83 446 -53 589 83
223 212 288 471 170 671 -15 25 -29 49 -30 55 -4 11 -110 117 -154 155 -43 36
-189 130 -202 130 -6 0 -13 3 -15 8 -1 4 -30 20 -63 37 -33 16 -95 55 -139 85
-43 30 -88 62 -100 70 -11 8 -30 25 -42 38 -12 12 -24 22 -28 22 -8 0 -70 55
-163 146 -34 34 -65 59 -68 56 -3 -3 -5 -1 -5 5 0 5 -21 33 -47 60 -27 28 -66
72 -88 99 -22 26 -44 53 -50 59 -5 6 -14 18 -20 26 -5 9 -40 60 -76 115 -126
187 -183 316 -269 609 -12 41 -34 175 -33 203 0 12 -3 22 -6 22 -3 0 -7 15 -7
33 -1 17 -5 82 -9 142 -13 192 -7 360 20 575 4 30 9 58 11 61 2 4 6 24 10 45
7 47 58 232 82 294 9 25 17 47 18 50 11 39 27 74 81 180 61 121 82 159 93 170
3 3 11 17 19 32 8 15 22 37 33 47 10 11 18 23 18 26 0 7 63 87 128 164 70 84
236 244 312 301 25 18 50 38 55 44 6 6 30 25 55 41 25 17 47 33 48 38 2 4 10
7 17 7 7 0 15 3 17 8 3 9 165 112 175 112 4 0 23 11 42 23 20 13 67 44 105 68
253 160 363 418 282 660 -14 42 -34 92 -45 110 -12 19 -25 44 -30 56 -6 12
-38 51 -73 86 -61 62 -137 107 -229 136 -33 10 -193 23 -201 16z"/>
<path d="M7475 3282 c-3 -3 -19 -7 -37 -9 -30 -3 -110 -38 -135 -58 -7 -5 -19
-16 -28 -23 -8 -7 -15 -10 -15 -7 0 3 -10 -3 -22 -15 -12 -11 -25 -20 -29 -20
-4 0 -14 -6 -21 -12 -7 -7 -56 -42 -108 -77 -52 -36 -97 -67 -100 -70 -3 -3
-59 -42 -125 -86 -66 -44 -122 -82 -125 -85 -14 -15 -204 -130 -263 -159 -96
-47 -222 -173 -265 -262 -110 -230 -83 -488 66 -645 49 -51 125 -109 172 -131
14 -6 43 -19 65 -29 31 -14 67 -19 155 -20 63 -1 122 2 130 7 12 6 97 30 120
34 3 1 22 9 44 18 21 9 41 17 44 17 12 0 207 103 292 154 51 31 96 56 101 56
4 0 9 3 11 8 2 4 41 33 88 64 134 91 178 123 220 161 22 20 40 34 40 32 0 -5
149 144 181 181 14 16 28 37 32 47 3 9 10 17 16 17 13 0 100 177 115 237 18
68 18 199 0 266 -51 193 -195 336 -399 393 -56 16 -209 27 -220 16z"/>
</g>
</svg>
